<svg id="Capa_1" enable-background="new 0 0 512 512" height="512" viewBox="0 0 512 512" width="100" xmlns="http://www.w3.org/2000/svg"><g id="XMLID_672_"><g id="XMLID_263_"><path id="XMLID_1158_" d="m398.335 57.41c-62.53 0-113.221 73.707-113.221 164.629s50.691 164.629 113.221 164.629 113.221-73.707 113.221-164.629-50.691-164.629-113.221-164.629zm0 256.951c-29.96 0-54.248-41.334-54.248-92.322s24.288-92.321 54.248-92.321 54.248 41.334 54.248 92.321-24.287 92.322-54.248 92.322z" fill="#ff9e22"/><path id="XMLID_534_" d="m53.752 434v-342.602c0-8.353 6.772-15.125 15.125-15.125h267.29c8.353 0 15.125 6.772 15.125 15.125v342.602l-148.77 59z" fill="#ffe377"/><g id="XMLID_20_"><path id="XMLID_491_" d="m336.166 76.273c8.353 0 15.125 6.772 15.125 15.125v342.602l-148.77 59v-416.727z" fill="#fc0"/></g><g id="XMLID_1175_"><g id="XMLID_1178_"><path id="XMLID_1287_" d="m130.704 417.105c-8.353 0-15.125-6.772-15.125-15.125v-61.773c0-8.353 6.772-15.125 15.125-15.125s15.125 6.772 15.125 15.125v61.773c0 8.353-6.772 15.125-15.125 15.125z" fill="#fc0"/></g><g id="XMLID_1177_"><path id="XMLID_196_" d="m202.521 417.105c-8.353 0-15.125-6.772-15.125-15.125v-117.927c0-8.353 6.772-15.125 15.125-15.125s15.125 6.772 15.125 15.125v117.927c0 8.353-6.772 15.125-15.125 15.125z" fill="#fc0"/></g><g id="XMLID_1176_"><path id="XMLID_195_" d="m274.339 417.105c-8.353 0-15.125-6.772-15.125-15.125v-178.191c0-8.353 6.772-15.125 15.125-15.125s15.125 6.772 15.125 15.125v178.191c0 8.353-6.772 15.125-15.125 15.125z" fill="#ff9e22"/></g></g><g id="XMLID_1253_"><path id="XMLID_1155_" d="m48.079 427.188h308.885c17.851 1.003 32.068 15.839 32.068 33.938v16.879c0 18.746-15.25 33.996-33.995 33.996h-305.031c-18.745 0-33.995-15.25-33.995-33.996v-16.879c0-18.099 14.217-32.935 32.068-33.938z" fill="#fc0"/></g><g id="XMLID_549_"><path id="XMLID_548_" d="m217.646 284.053v117.927c0 8.353-6.772 15.125-15.125 15.125v-148.177c8.354 0 15.125 6.771 15.125 15.125z" fill="#ff9e22"/></g><g id="XMLID_1168_"><path id="XMLID_1381_" d="m356.964 427.188c17.851 1.003 32.068 15.839 32.068 33.938v16.879c0 18.746-15.25 33.996-33.995 33.996h-152.516v-84.812h154.443z" fill="#ff9e22"/></g></g><path id="XMLID_338_" d="m324.324 0h-252.158c-39.548 0-71.722 32.174-71.722 71.721v201.369c0 31.109 25.309 56.417 56.417 56.417s56.417-25.309 56.417-56.417v-91.909c0-6.349 5.166-11.515 11.515-11.515s11.515 5.166 11.515 11.515v28.719c0 29.15 23.715 52.865 52.865 52.865s52.867-23.715 52.867-52.865v-20.283c0-11.001 8.95-19.951 19.951-19.951 23.068 0 41.835-18.766 41.835-41.834v-4.862c0-9.069 7.378-16.447 16.447-16.447h13.126c26.866 0 48.724-21.857 48.724-48.724-.001-31.871-25.929-57.799-57.799-57.799z" fill="#efefef"/><path id="XMLID_907_" d="m324.324 0h-121.803v261.055c22.709-5.929 39.518-26.615 39.518-51.155v-20.283c0-11.001 8.95-19.951 19.951-19.951 23.068 0 41.835-18.766 41.835-41.834v-4.862c0-9.069 7.378-16.447 16.447-16.447h13.126c26.867 0 48.724-21.857 48.724-48.724 0-31.871-25.928-57.799-57.798-57.799z" fill="#e5e5e5"/></g></svg>